<mxfile host="app.diagrams.net" modified="2024-03-30T14:20:11.279Z" agent="Mozilla/5.0 (Macintosh; Intel Mac OS X 10_15_7) AppleWebKit/537.36 (KHTML, like Gecko) Chrome/123.0.0.0 Safari/537.36" etag="qXW7BS13VytbfD6qV_jX" version="24.0.7" type="device">
  <diagram id="C5RBs43oDa-KdzZeNtuy" name="Page-1">
    <mxGraphModel dx="1192" dy="929" grid="1" gridSize="10" guides="1" tooltips="1" connect="1" arrows="1" fold="1" page="1" pageScale="1" pageWidth="827" pageHeight="1169" math="0" shadow="0">
      <root>
        <mxCell id="WIyWlLk6GJQsqaUBKTNV-0" />
        <mxCell id="WIyWlLk6GJQsqaUBKTNV-1" parent="WIyWlLk6GJQsqaUBKTNV-0" />
        <mxCell id="gv6H3Rjc2FnPoGJvlaB8-11" value="" style="group;fontSize=14;" vertex="1" connectable="0" parent="WIyWlLk6GJQsqaUBKTNV-1">
          <mxGeometry x="740" y="340" width="420" height="240" as="geometry" />
        </mxCell>
        <mxCell id="gv6H3Rjc2FnPoGJvlaB8-4" value="" style="edgeStyle=orthogonalEdgeStyle;rounded=0;orthogonalLoop=1;jettySize=auto;html=1;fontSize=14;" edge="1" parent="gv6H3Rjc2FnPoGJvlaB8-11" source="gv6H3Rjc2FnPoGJvlaB8-2" target="gv6H3Rjc2FnPoGJvlaB8-3">
          <mxGeometry relative="1" as="geometry" />
        </mxCell>
        <mxCell id="gv6H3Rjc2FnPoGJvlaB8-2" value="&lt;font style=&quot;font-size: 12px;&quot;&gt;Collect Preferences&lt;/font&gt;&lt;div style=&quot;font-size: 12px;&quot;&gt;&lt;font style=&quot;font-size: 12px;&quot;&gt;of All Agents&lt;/font&gt;&lt;/div&gt;" style="shape=parallelogram;perimeter=parallelogramPerimeter;html=1;fixedSize=1;fontSize=12;fillColor=#bac8d3;strokeColor=#23445d;whiteSpace=wrap;" vertex="1" parent="gv6H3Rjc2FnPoGJvlaB8-11">
          <mxGeometry y="11.428571428571429" width="132.6315789473684" height="68.57142857142858" as="geometry" />
        </mxCell>
        <mxCell id="gv6H3Rjc2FnPoGJvlaB8-6" value="" style="edgeStyle=orthogonalEdgeStyle;rounded=0;orthogonalLoop=1;jettySize=auto;html=1;fontSize=14;" edge="1" parent="gv6H3Rjc2FnPoGJvlaB8-11" source="gv6H3Rjc2FnPoGJvlaB8-3" target="gv6H3Rjc2FnPoGJvlaB8-5">
          <mxGeometry relative="1" as="geometry" />
        </mxCell>
        <mxCell id="gv6H3Rjc2FnPoGJvlaB8-3" value="&lt;font style=&quot;font-size: 14px;&quot;&gt;Voting Scheme&lt;/font&gt;" style="rhombus;whiteSpace=wrap;html=1;fontSize=14;fillColor=#fff2cc;strokeColor=#d6b656;" vertex="1" parent="gv6H3Rjc2FnPoGJvlaB8-11">
          <mxGeometry x="158.55" y="5.71" width="80.79" height="80" as="geometry" />
        </mxCell>
        <mxCell id="gv6H3Rjc2FnPoGJvlaB8-8" value="" style="edgeStyle=orthogonalEdgeStyle;rounded=0;orthogonalLoop=1;jettySize=auto;html=1;fontSize=14;" edge="1" parent="gv6H3Rjc2FnPoGJvlaB8-11" source="gv6H3Rjc2FnPoGJvlaB8-5" target="gv6H3Rjc2FnPoGJvlaB8-7">
          <mxGeometry relative="1" as="geometry" />
        </mxCell>
        <mxCell id="gv6H3Rjc2FnPoGJvlaB8-5" value="&lt;font style=&quot;font-size: 14px;&quot;&gt;Initial Votes&lt;/font&gt;" style="whiteSpace=wrap;html=1;fontSize=14;fillColor=#f0a30a;strokeColor=#BD7000;fontColor=#000000;" vertex="1" parent="gv6H3Rjc2FnPoGJvlaB8-11">
          <mxGeometry x="132.6315789473684" y="114.28571428571429" width="132.6315789473684" height="34.28571428571429" as="geometry" />
        </mxCell>
        <mxCell id="gv6H3Rjc2FnPoGJvlaB8-10" value="" style="edgeStyle=orthogonalEdgeStyle;rounded=0;orthogonalLoop=1;jettySize=auto;html=1;fontSize=14;" edge="1" parent="gv6H3Rjc2FnPoGJvlaB8-11" source="gv6H3Rjc2FnPoGJvlaB8-7" target="gv6H3Rjc2FnPoGJvlaB8-9">
          <mxGeometry relative="1" as="geometry" />
        </mxCell>
        <mxCell id="gv6H3Rjc2FnPoGJvlaB8-7" value="&lt;font style=&quot;font-size: 14px;&quot;&gt;Calculate Initial Results&lt;/font&gt;" style="shape=parallelogram;perimeter=parallelogramPerimeter;whiteSpace=wrap;html=1;fixedSize=1;fontSize=14;fillColor=#bac8d3;strokeColor=#23445d;" vertex="1" parent="gv6H3Rjc2FnPoGJvlaB8-11">
          <mxGeometry x="135.26" y="171.43" width="127.37" height="68.57" as="geometry" />
        </mxCell>
        <mxCell id="gv6H3Rjc2FnPoGJvlaB8-9" value="&lt;font style=&quot;font-size: 14px;&quot;&gt;Initial Total Happiness&lt;/font&gt;" style="whiteSpace=wrap;html=1;fontSize=14;fillColor=#fa6800;fontColor=#000000;strokeColor=#C73500;" vertex="1" parent="gv6H3Rjc2FnPoGJvlaB8-11">
          <mxGeometry x="287.37" y="176.43" width="82.63" height="58.57" as="geometry" />
        </mxCell>
        <mxCell id="gv6H3Rjc2FnPoGJvlaB8-17" value="" style="rounded=1;whiteSpace=wrap;html=1;fontSize=14;arcSize=22;" vertex="1" parent="WIyWlLk6GJQsqaUBKTNV-1">
          <mxGeometry x="200" y="320" width="60" height="240" as="geometry" />
        </mxCell>
        <mxCell id="gv6H3Rjc2FnPoGJvlaB8-12" value="NA1" style="ellipse;whiteSpace=wrap;html=1;aspect=fixed;fillColor=#d5e8d4;strokeColor=#82b366;fontSize=14;" vertex="1" parent="WIyWlLk6GJQsqaUBKTNV-1">
          <mxGeometry x="210" y="380" width="40" height="40" as="geometry" />
        </mxCell>
        <mxCell id="gv6H3Rjc2FnPoGJvlaB8-13" value="NA2" style="ellipse;whiteSpace=wrap;html=1;aspect=fixed;fillColor=#d5e8d4;strokeColor=#82b366;fontSize=14;" vertex="1" parent="WIyWlLk6GJQsqaUBKTNV-1">
          <mxGeometry x="210" y="430" width="40" height="40" as="geometry" />
        </mxCell>
        <mxCell id="gv6H3Rjc2FnPoGJvlaB8-14" value="NA-n" style="ellipse;whiteSpace=wrap;html=1;aspect=fixed;fillColor=#d5e8d4;strokeColor=#82b366;fontSize=14;" vertex="1" parent="WIyWlLk6GJQsqaUBKTNV-1">
          <mxGeometry x="210" y="510" width="40" height="40" as="geometry" />
        </mxCell>
        <mxCell id="gv6H3Rjc2FnPoGJvlaB8-15" value="" style="endArrow=none;dashed=1;html=1;rounded=0;entryX=0.5;entryY=1;entryDx=0;entryDy=0;strokeWidth=6;dashPattern=1 2;fontSize=14;" edge="1" parent="WIyWlLk6GJQsqaUBKTNV-1" target="gv6H3Rjc2FnPoGJvlaB8-13">
          <mxGeometry width="50" height="50" relative="1" as="geometry">
            <mxPoint x="230" y="500" as="sourcePoint" />
            <mxPoint x="470" y="450" as="targetPoint" />
          </mxGeometry>
        </mxCell>
        <mxCell id="gv6H3Rjc2FnPoGJvlaB8-16" value="SA1" style="ellipse;whiteSpace=wrap;html=1;aspect=fixed;fillColor=#f8cecc;strokeColor=#b85450;fontSize=14;" vertex="1" parent="WIyWlLk6GJQsqaUBKTNV-1">
          <mxGeometry x="210" y="330" width="40" height="40" as="geometry" />
        </mxCell>
        <mxCell id="gv6H3Rjc2FnPoGJvlaB8-32" value="" style="edgeStyle=orthogonalEdgeStyle;rounded=0;orthogonalLoop=1;jettySize=auto;html=1;" edge="1" parent="WIyWlLk6GJQsqaUBKTNV-1" source="gv6H3Rjc2FnPoGJvlaB8-21" target="gv6H3Rjc2FnPoGJvlaB8-16">
          <mxGeometry relative="1" as="geometry" />
        </mxCell>
        <mxCell id="gv6H3Rjc2FnPoGJvlaB8-28" value="" style="edgeStyle=orthogonalEdgeStyle;rounded=0;orthogonalLoop=1;jettySize=auto;html=1;dashed=1;shape=link;dashPattern=1 1;strokeWidth=3;fontSize=14;" edge="1" parent="WIyWlLk6GJQsqaUBKTNV-1" target="gv6H3Rjc2FnPoGJvlaB8-24">
          <mxGeometry relative="1" as="geometry">
            <mxPoint x="360" y="470" as="sourcePoint" />
          </mxGeometry>
        </mxCell>
        <mxCell id="gv6H3Rjc2FnPoGJvlaB8-38" value="" style="group" vertex="1" connectable="0" parent="WIyWlLk6GJQsqaUBKTNV-1">
          <mxGeometry x="290" y="320" width="120" height="240" as="geometry" />
        </mxCell>
        <mxCell id="gv6H3Rjc2FnPoGJvlaB8-20" value="" style="rounded=0;whiteSpace=wrap;html=1;fontSize=14;" vertex="1" parent="gv6H3Rjc2FnPoGJvlaB8-38">
          <mxGeometry width="120" height="240" as="geometry" />
        </mxCell>
        <mxCell id="gv6H3Rjc2FnPoGJvlaB8-21" value="&lt;font style=&quot;font-size: 14px;&quot;&gt;Preference of SA1&lt;/font&gt;" style="rounded=1;whiteSpace=wrap;html=1;fillColor=#f8cecc;strokeColor=#b85450;fontSize=14;" vertex="1" parent="gv6H3Rjc2FnPoGJvlaB8-38">
          <mxGeometry x="7.5" y="10" width="105" height="40" as="geometry" />
        </mxCell>
        <mxCell id="gv6H3Rjc2FnPoGJvlaB8-22" value="&lt;span style=&quot;color: rgb(0, 0, 0); font-family: Helvetica; font-size: 14px; font-style: normal; font-variant-ligatures: normal; font-variant-caps: normal; font-weight: 400; letter-spacing: normal; orphans: 2; text-align: center; text-indent: 0px; text-transform: none; widows: 2; word-spacing: 0px; -webkit-text-stroke-width: 0px; white-space: normal; text-decoration-thickness: initial; text-decoration-style: initial; text-decoration-color: initial; float: none; display: inline !important;&quot;&gt;Preference of NA1&lt;/span&gt;" style="rounded=1;whiteSpace=wrap;html=1;fontSize=14;fillColor=#d5e8d4;strokeColor=#82b366;labelBorderColor=none;labelBackgroundColor=#dae8d8;" vertex="1" parent="gv6H3Rjc2FnPoGJvlaB8-38">
          <mxGeometry x="7.5" y="60" width="105" height="40" as="geometry" />
        </mxCell>
        <mxCell id="gv6H3Rjc2FnPoGJvlaB8-24" value="Preference of NA-n" style="rounded=1;whiteSpace=wrap;html=1;fontSize=14;fillColor=#d5e8d4;strokeColor=#82b366;" vertex="1" parent="gv6H3Rjc2FnPoGJvlaB8-38">
          <mxGeometry x="7.5" y="190" width="105" height="40" as="geometry" />
        </mxCell>
        <mxCell id="gv6H3Rjc2FnPoGJvlaB8-72" value="" style="edgeStyle=orthogonalEdgeStyle;rounded=0;orthogonalLoop=1;jettySize=auto;html=1;shape=link;dashed=1;dashPattern=1 1;strokeWidth=3;" edge="1" parent="gv6H3Rjc2FnPoGJvlaB8-38" source="gv6H3Rjc2FnPoGJvlaB8-29" target="gv6H3Rjc2FnPoGJvlaB8-24">
          <mxGeometry relative="1" as="geometry" />
        </mxCell>
        <mxCell id="gv6H3Rjc2FnPoGJvlaB8-29" value="&lt;span style=&quot;color: rgb(0, 0, 0); font-family: Helvetica; font-size: 14px; font-style: normal; font-variant-ligatures: normal; font-variant-caps: normal; font-weight: 400; letter-spacing: normal; orphans: 2; text-align: center; text-indent: 0px; text-transform: none; widows: 2; word-spacing: 0px; -webkit-text-stroke-width: 0px; white-space: normal; text-decoration-thickness: initial; text-decoration-style: initial; text-decoration-color: initial; float: none; display: inline !important;&quot;&gt;Preference of NA2&lt;/span&gt;" style="rounded=1;whiteSpace=wrap;html=1;fontSize=14;fillColor=#d5e8d4;strokeColor=#82b366;labelBorderColor=none;labelBackgroundColor=#dae8d8;" vertex="1" parent="gv6H3Rjc2FnPoGJvlaB8-38">
          <mxGeometry x="7.5" y="110" width="105" height="40" as="geometry" />
        </mxCell>
        <mxCell id="gv6H3Rjc2FnPoGJvlaB8-39" value="Prefernces" style="text;html=1;align=center;verticalAlign=middle;whiteSpace=wrap;rounded=0;fontSize=14;" vertex="1" parent="WIyWlLk6GJQsqaUBKTNV-1">
          <mxGeometry x="280" y="290" width="120" height="30" as="geometry" />
        </mxCell>
        <mxCell id="gv6H3Rjc2FnPoGJvlaB8-40" value="Agents" style="text;html=1;align=center;verticalAlign=middle;whiteSpace=wrap;rounded=0;fontSize=14;" vertex="1" parent="WIyWlLk6GJQsqaUBKTNV-1">
          <mxGeometry x="200" y="290" width="60" height="30" as="geometry" />
        </mxCell>
        <mxCell id="gv6H3Rjc2FnPoGJvlaB8-34" value="" style="endArrow=classic;html=1;rounded=0;exitX=1;exitY=0.5;exitDx=0;exitDy=0;entryX=0;entryY=0.5;entryDx=0;entryDy=0;strokeWidth=2;" edge="1" parent="WIyWlLk6GJQsqaUBKTNV-1" source="gv6H3Rjc2FnPoGJvlaB8-13" target="gv6H3Rjc2FnPoGJvlaB8-29">
          <mxGeometry width="50" height="50" relative="1" as="geometry">
            <mxPoint x="260" y="410" as="sourcePoint" />
            <mxPoint x="300" y="410" as="targetPoint" />
          </mxGeometry>
        </mxCell>
        <mxCell id="gv6H3Rjc2FnPoGJvlaB8-33" value="" style="endArrow=classic;html=1;rounded=0;exitX=1;exitY=0.5;exitDx=0;exitDy=0;entryX=0;entryY=0.5;entryDx=0;entryDy=0;strokeWidth=2;" edge="1" parent="WIyWlLk6GJQsqaUBKTNV-1" source="gv6H3Rjc2FnPoGJvlaB8-12" target="gv6H3Rjc2FnPoGJvlaB8-22">
          <mxGeometry width="50" height="50" relative="1" as="geometry">
            <mxPoint x="480" y="410" as="sourcePoint" />
            <mxPoint x="530" y="360" as="targetPoint" />
          </mxGeometry>
        </mxCell>
        <mxCell id="gv6H3Rjc2FnPoGJvlaB8-35" value="" style="endArrow=classic;html=1;rounded=0;exitX=1;exitY=0.5;exitDx=0;exitDy=0;entryX=0;entryY=0.5;entryDx=0;entryDy=0;strokeWidth=2;" edge="1" parent="WIyWlLk6GJQsqaUBKTNV-1" source="gv6H3Rjc2FnPoGJvlaB8-14" target="gv6H3Rjc2FnPoGJvlaB8-24">
          <mxGeometry width="50" height="50" relative="1" as="geometry">
            <mxPoint x="270" y="420" as="sourcePoint" />
            <mxPoint x="310" y="420" as="targetPoint" />
          </mxGeometry>
        </mxCell>
        <mxCell id="gv6H3Rjc2FnPoGJvlaB8-31" value="" style="endArrow=classic;startArrow=classic;html=1;rounded=0;strokeWidth=2;" edge="1" parent="WIyWlLk6GJQsqaUBKTNV-1" source="gv6H3Rjc2FnPoGJvlaB8-16">
          <mxGeometry width="50" height="50" relative="1" as="geometry">
            <mxPoint x="480" y="410" as="sourcePoint" />
            <mxPoint x="290" y="350" as="targetPoint" />
          </mxGeometry>
        </mxCell>
        <mxCell id="gv6H3Rjc2FnPoGJvlaB8-61" value="" style="group" vertex="1" connectable="0" parent="WIyWlLk6GJQsqaUBKTNV-1">
          <mxGeometry x="204" y="640" width="210" height="270" as="geometry" />
        </mxCell>
        <mxCell id="gv6H3Rjc2FnPoGJvlaB8-41" value="" style="rounded=1;whiteSpace=wrap;html=1;fontSize=14;arcSize=22;" vertex="1" parent="gv6H3Rjc2FnPoGJvlaB8-61">
          <mxGeometry y="30" width="60" height="240" as="geometry" />
        </mxCell>
        <mxCell id="gv6H3Rjc2FnPoGJvlaB8-42" value="NA1" style="ellipse;whiteSpace=wrap;html=1;aspect=fixed;fillColor=#d5e8d4;strokeColor=#82b366;fontSize=14;" vertex="1" parent="gv6H3Rjc2FnPoGJvlaB8-61">
          <mxGeometry x="10" y="90" width="40" height="40" as="geometry" />
        </mxCell>
        <mxCell id="gv6H3Rjc2FnPoGJvlaB8-43" value="NA2" style="ellipse;whiteSpace=wrap;html=1;aspect=fixed;fillColor=#d5e8d4;strokeColor=#82b366;fontSize=14;" vertex="1" parent="gv6H3Rjc2FnPoGJvlaB8-61">
          <mxGeometry x="10" y="140" width="40" height="40" as="geometry" />
        </mxCell>
        <mxCell id="gv6H3Rjc2FnPoGJvlaB8-44" value="NA-n" style="ellipse;whiteSpace=wrap;html=1;aspect=fixed;fillColor=#d5e8d4;strokeColor=#82b366;fontSize=14;" vertex="1" parent="gv6H3Rjc2FnPoGJvlaB8-61">
          <mxGeometry x="10" y="220" width="40" height="40" as="geometry" />
        </mxCell>
        <mxCell id="gv6H3Rjc2FnPoGJvlaB8-45" value="" style="endArrow=none;dashed=1;html=1;rounded=0;entryX=0.5;entryY=1;entryDx=0;entryDy=0;strokeWidth=6;dashPattern=1 2;fontSize=14;" edge="1" parent="gv6H3Rjc2FnPoGJvlaB8-61" target="gv6H3Rjc2FnPoGJvlaB8-43">
          <mxGeometry width="50" height="50" relative="1" as="geometry">
            <mxPoint x="30" y="210" as="sourcePoint" />
            <mxPoint x="270" y="160" as="targetPoint" />
          </mxGeometry>
        </mxCell>
        <mxCell id="gv6H3Rjc2FnPoGJvlaB8-46" value="SA1" style="ellipse;whiteSpace=wrap;html=1;aspect=fixed;fillColor=#f8cecc;strokeColor=#b85450;fontSize=14;" vertex="1" parent="gv6H3Rjc2FnPoGJvlaB8-61">
          <mxGeometry x="10" y="40" width="40" height="40" as="geometry" />
        </mxCell>
        <mxCell id="gv6H3Rjc2FnPoGJvlaB8-47" value="" style="edgeStyle=orthogonalEdgeStyle;rounded=0;orthogonalLoop=1;jettySize=auto;html=1;" edge="1" parent="gv6H3Rjc2FnPoGJvlaB8-61" source="gv6H3Rjc2FnPoGJvlaB8-51" target="gv6H3Rjc2FnPoGJvlaB8-46">
          <mxGeometry relative="1" as="geometry" />
        </mxCell>
        <mxCell id="gv6H3Rjc2FnPoGJvlaB8-48" value="" style="edgeStyle=orthogonalEdgeStyle;rounded=0;orthogonalLoop=1;jettySize=auto;html=1;dashed=1;shape=link;dashPattern=1 1;strokeWidth=3;fontSize=14;" edge="1" parent="gv6H3Rjc2FnPoGJvlaB8-61" target="gv6H3Rjc2FnPoGJvlaB8-53">
          <mxGeometry relative="1" as="geometry">
            <mxPoint x="160" y="180" as="sourcePoint" />
          </mxGeometry>
        </mxCell>
        <mxCell id="gv6H3Rjc2FnPoGJvlaB8-49" value="" style="group" vertex="1" connectable="0" parent="gv6H3Rjc2FnPoGJvlaB8-61">
          <mxGeometry x="90" y="30" width="120" height="240" as="geometry" />
        </mxCell>
        <mxCell id="gv6H3Rjc2FnPoGJvlaB8-50" value="" style="rounded=0;whiteSpace=wrap;html=1;fontSize=14;" vertex="1" parent="gv6H3Rjc2FnPoGJvlaB8-49">
          <mxGeometry width="120" height="240" as="geometry" />
        </mxCell>
        <mxCell id="gv6H3Rjc2FnPoGJvlaB8-51" value="&lt;font style=&quot;font-size: 14px;&quot;&gt;Preference of SA1&lt;/font&gt;" style="rounded=1;whiteSpace=wrap;html=1;fillColor=#f8cecc;strokeColor=#b85450;fontSize=14;" vertex="1" parent="gv6H3Rjc2FnPoGJvlaB8-49">
          <mxGeometry x="7.5" y="10" width="105" height="40" as="geometry" />
        </mxCell>
        <mxCell id="gv6H3Rjc2FnPoGJvlaB8-52" value="&lt;span style=&quot;color: rgb(0, 0, 0); font-family: Helvetica; font-size: 14px; font-style: normal; font-variant-ligatures: normal; font-variant-caps: normal; font-weight: 400; letter-spacing: normal; orphans: 2; text-align: center; text-indent: 0px; text-transform: none; widows: 2; word-spacing: 0px; -webkit-text-stroke-width: 0px; white-space: normal; text-decoration-thickness: initial; text-decoration-style: initial; text-decoration-color: initial; float: none; display: inline !important;&quot;&gt;Preference of NA1&lt;/span&gt;" style="rounded=1;whiteSpace=wrap;html=1;fontSize=14;fillColor=#d5e8d4;strokeColor=#82b366;labelBorderColor=none;labelBackgroundColor=#dae8d8;" vertex="1" parent="gv6H3Rjc2FnPoGJvlaB8-49">
          <mxGeometry x="7.5" y="60" width="105" height="40" as="geometry" />
        </mxCell>
        <mxCell id="gv6H3Rjc2FnPoGJvlaB8-53" value="Preference of NA-n" style="rounded=1;whiteSpace=wrap;html=1;fontSize=14;fillColor=#d5e8d4;strokeColor=#82b366;" vertex="1" parent="gv6H3Rjc2FnPoGJvlaB8-49">
          <mxGeometry x="7.5" y="190" width="105" height="40" as="geometry" />
        </mxCell>
        <mxCell id="gv6H3Rjc2FnPoGJvlaB8-54" value="&lt;span style=&quot;color: rgb(0, 0, 0); font-family: Helvetica; font-size: 14px; font-style: normal; font-variant-ligatures: normal; font-variant-caps: normal; font-weight: 400; letter-spacing: normal; orphans: 2; text-align: center; text-indent: 0px; text-transform: none; widows: 2; word-spacing: 0px; -webkit-text-stroke-width: 0px; white-space: normal; text-decoration-thickness: initial; text-decoration-style: initial; text-decoration-color: initial; float: none; display: inline !important;&quot;&gt;Preference of NA2&lt;/span&gt;" style="rounded=1;whiteSpace=wrap;html=1;fontSize=14;fillColor=#d5e8d4;strokeColor=#82b366;labelBorderColor=none;labelBackgroundColor=#dae8d8;" vertex="1" parent="gv6H3Rjc2FnPoGJvlaB8-49">
          <mxGeometry x="7.5" y="110" width="105" height="40" as="geometry" />
        </mxCell>
        <mxCell id="gv6H3Rjc2FnPoGJvlaB8-55" value="Prefernces" style="text;html=1;align=center;verticalAlign=middle;whiteSpace=wrap;rounded=0;fontSize=14;" vertex="1" parent="gv6H3Rjc2FnPoGJvlaB8-61">
          <mxGeometry x="80" width="120" height="30" as="geometry" />
        </mxCell>
        <mxCell id="gv6H3Rjc2FnPoGJvlaB8-56" value="Agents" style="text;html=1;align=center;verticalAlign=middle;whiteSpace=wrap;rounded=0;fontSize=14;" vertex="1" parent="gv6H3Rjc2FnPoGJvlaB8-61">
          <mxGeometry width="60" height="30" as="geometry" />
        </mxCell>
        <mxCell id="gv6H3Rjc2FnPoGJvlaB8-57" value="" style="endArrow=classic;html=1;rounded=0;exitX=1;exitY=0.5;exitDx=0;exitDy=0;entryX=0;entryY=0.5;entryDx=0;entryDy=0;strokeWidth=2;" edge="1" parent="gv6H3Rjc2FnPoGJvlaB8-61" source="gv6H3Rjc2FnPoGJvlaB8-43" target="gv6H3Rjc2FnPoGJvlaB8-54">
          <mxGeometry width="50" height="50" relative="1" as="geometry">
            <mxPoint x="60" y="120" as="sourcePoint" />
            <mxPoint x="100" y="120" as="targetPoint" />
          </mxGeometry>
        </mxCell>
        <mxCell id="gv6H3Rjc2FnPoGJvlaB8-58" value="" style="endArrow=classic;html=1;rounded=0;exitX=1;exitY=0.5;exitDx=0;exitDy=0;entryX=0;entryY=0.5;entryDx=0;entryDy=0;strokeWidth=2;" edge="1" parent="gv6H3Rjc2FnPoGJvlaB8-61" source="gv6H3Rjc2FnPoGJvlaB8-42" target="gv6H3Rjc2FnPoGJvlaB8-52">
          <mxGeometry width="50" height="50" relative="1" as="geometry">
            <mxPoint x="280" y="120" as="sourcePoint" />
            <mxPoint x="330" y="70" as="targetPoint" />
          </mxGeometry>
        </mxCell>
        <mxCell id="gv6H3Rjc2FnPoGJvlaB8-59" value="" style="endArrow=classic;html=1;rounded=0;exitX=1;exitY=0.5;exitDx=0;exitDy=0;entryX=0;entryY=0.5;entryDx=0;entryDy=0;strokeWidth=2;" edge="1" parent="gv6H3Rjc2FnPoGJvlaB8-61" source="gv6H3Rjc2FnPoGJvlaB8-44" target="gv6H3Rjc2FnPoGJvlaB8-53">
          <mxGeometry width="50" height="50" relative="1" as="geometry">
            <mxPoint x="70" y="130" as="sourcePoint" />
            <mxPoint x="110" y="130" as="targetPoint" />
          </mxGeometry>
        </mxCell>
        <mxCell id="gv6H3Rjc2FnPoGJvlaB8-60" value="" style="endArrow=classic;startArrow=classic;html=1;rounded=0;strokeWidth=2;" edge="1" parent="gv6H3Rjc2FnPoGJvlaB8-61" source="gv6H3Rjc2FnPoGJvlaB8-46">
          <mxGeometry width="50" height="50" relative="1" as="geometry">
            <mxPoint x="280" y="120" as="sourcePoint" />
            <mxPoint x="90" y="60" as="targetPoint" />
          </mxGeometry>
        </mxCell>
        <mxCell id="gv6H3Rjc2FnPoGJvlaB8-71" value="" style="group" vertex="1" connectable="0" parent="WIyWlLk6GJQsqaUBKTNV-1">
          <mxGeometry x="560" y="670" width="120" height="240" as="geometry" />
        </mxCell>
        <mxCell id="gv6H3Rjc2FnPoGJvlaB8-63" value="" style="edgeStyle=orthogonalEdgeStyle;rounded=0;orthogonalLoop=1;jettySize=auto;html=1;dashed=1;shape=link;dashPattern=1 1;strokeWidth=3;fontSize=14;" edge="1" parent="gv6H3Rjc2FnPoGJvlaB8-71" target="gv6H3Rjc2FnPoGJvlaB8-68">
          <mxGeometry relative="1" as="geometry">
            <mxPoint x="70" y="150" as="sourcePoint" />
          </mxGeometry>
        </mxCell>
        <mxCell id="gv6H3Rjc2FnPoGJvlaB8-64" value="" style="group;fillColor=#e1d5e7;strokeColor=#9673a6;" vertex="1" connectable="0" parent="gv6H3Rjc2FnPoGJvlaB8-71">
          <mxGeometry width="120" height="240" as="geometry" />
        </mxCell>
        <mxCell id="gv6H3Rjc2FnPoGJvlaB8-65" value="" style="rounded=0;whiteSpace=wrap;html=1;fontSize=14;" vertex="1" parent="gv6H3Rjc2FnPoGJvlaB8-64">
          <mxGeometry width="120" height="240" as="geometry" />
        </mxCell>
        <mxCell id="gv6H3Rjc2FnPoGJvlaB8-66" value="&lt;font style=&quot;font-size: 12px;&quot;&gt;Modified Preference of SA1&lt;/font&gt;" style="rounded=1;whiteSpace=wrap;html=1;fillColor=#e1d5e7;strokeColor=#9673a6;fontSize=14;" vertex="1" parent="gv6H3Rjc2FnPoGJvlaB8-64">
          <mxGeometry x="7.5" y="10" width="105" height="40" as="geometry" />
        </mxCell>
        <mxCell id="gv6H3Rjc2FnPoGJvlaB8-67" value="&lt;span style=&quot;color: rgb(0, 0, 0); font-family: Helvetica; font-size: 14px; font-style: normal; font-variant-ligatures: normal; font-variant-caps: normal; font-weight: 400; letter-spacing: normal; orphans: 2; text-align: center; text-indent: 0px; text-transform: none; widows: 2; word-spacing: 0px; -webkit-text-stroke-width: 0px; white-space: normal; text-decoration-thickness: initial; text-decoration-style: initial; text-decoration-color: initial; float: none; display: inline !important;&quot;&gt;Preference of NA1&lt;/span&gt;" style="rounded=1;whiteSpace=wrap;html=1;fontSize=14;fillColor=#d5e8d4;strokeColor=#82b366;labelBorderColor=none;labelBackgroundColor=#dae8d8;" vertex="1" parent="gv6H3Rjc2FnPoGJvlaB8-64">
          <mxGeometry x="7.5" y="60" width="105" height="40" as="geometry" />
        </mxCell>
        <mxCell id="gv6H3Rjc2FnPoGJvlaB8-68" value="Preference of NA-n" style="rounded=1;whiteSpace=wrap;html=1;fontSize=14;fillColor=#d5e8d4;strokeColor=#82b366;" vertex="1" parent="gv6H3Rjc2FnPoGJvlaB8-64">
          <mxGeometry x="7.5" y="190" width="105" height="40" as="geometry" />
        </mxCell>
        <mxCell id="gv6H3Rjc2FnPoGJvlaB8-69" value="&lt;span style=&quot;color: rgb(0, 0, 0); font-family: Helvetica; font-size: 14px; font-style: normal; font-variant-ligatures: normal; font-variant-caps: normal; font-weight: 400; letter-spacing: normal; orphans: 2; text-align: center; text-indent: 0px; text-transform: none; widows: 2; word-spacing: 0px; -webkit-text-stroke-width: 0px; white-space: normal; text-decoration-thickness: initial; text-decoration-style: initial; text-decoration-color: initial; float: none; display: inline !important;&quot;&gt;Preference of NA2&lt;/span&gt;" style="rounded=1;whiteSpace=wrap;html=1;fontSize=14;fillColor=#d5e8d4;strokeColor=#82b366;labelBorderColor=none;labelBackgroundColor=#dae8d8;" vertex="1" parent="gv6H3Rjc2FnPoGJvlaB8-64">
          <mxGeometry x="7.5" y="110" width="105" height="40" as="geometry" />
        </mxCell>
        <mxCell id="gv6H3Rjc2FnPoGJvlaB8-101" style="edgeStyle=orthogonalEdgeStyle;rounded=0;orthogonalLoop=1;jettySize=auto;html=1;exitX=1;exitY=0.5;exitDx=0;exitDy=0;entryX=0;entryY=0.5;entryDx=0;entryDy=0;" edge="1" parent="WIyWlLk6GJQsqaUBKTNV-1" source="gv6H3Rjc2FnPoGJvlaB8-73" target="gv6H3Rjc2FnPoGJvlaB8-66">
          <mxGeometry relative="1" as="geometry" />
        </mxCell>
        <mxCell id="gv6H3Rjc2FnPoGJvlaB8-73" value="Strategic Voting" style="shape=parallelogram;perimeter=parallelogramPerimeter;whiteSpace=wrap;html=1;fixedSize=1;fontSize=14;fillColor=#bac8d3;strokeColor=#23445d;" vertex="1" parent="WIyWlLk6GJQsqaUBKTNV-1">
          <mxGeometry x="430" y="680" width="100" height="50" as="geometry" />
        </mxCell>
        <mxCell id="gv6H3Rjc2FnPoGJvlaB8-78" style="edgeStyle=orthogonalEdgeStyle;rounded=0;orthogonalLoop=1;jettySize=auto;html=1;exitX=0.5;exitY=1;exitDx=0;exitDy=0;entryX=0.558;entryY=-0.008;entryDx=0;entryDy=0;entryPerimeter=0;" edge="1" parent="WIyWlLk6GJQsqaUBKTNV-1" source="gv6H3Rjc2FnPoGJvlaB8-7" target="gv6H3Rjc2FnPoGJvlaB8-73">
          <mxGeometry relative="1" as="geometry" />
        </mxCell>
        <mxCell id="gv6H3Rjc2FnPoGJvlaB8-81" style="edgeStyle=orthogonalEdgeStyle;rounded=0;orthogonalLoop=1;jettySize=auto;html=1;exitX=0.5;exitY=0;exitDx=0;exitDy=0;entryX=0.5;entryY=1;entryDx=0;entryDy=0;" edge="1" parent="WIyWlLk6GJQsqaUBKTNV-1" source="gv6H3Rjc2FnPoGJvlaB8-79" target="gv6H3Rjc2FnPoGJvlaB8-73">
          <mxGeometry relative="1" as="geometry" />
        </mxCell>
        <mxCell id="gv6H3Rjc2FnPoGJvlaB8-79" value="Voting Strategy" style="rhombus;whiteSpace=wrap;html=1;fontSize=14;fillColor=#fff2cc;strokeColor=#d6b656;" vertex="1" parent="WIyWlLk6GJQsqaUBKTNV-1">
          <mxGeometry x="440" y="750" width="80" height="50" as="geometry" />
        </mxCell>
        <mxCell id="gv6H3Rjc2FnPoGJvlaB8-82" value="Updates Prefernces" style="text;html=1;align=center;verticalAlign=middle;whiteSpace=wrap;rounded=0;fontSize=14;" vertex="1" parent="WIyWlLk6GJQsqaUBKTNV-1">
          <mxGeometry x="560" y="640" width="120" height="30" as="geometry" />
        </mxCell>
        <mxCell id="gv6H3Rjc2FnPoGJvlaB8-94" style="edgeStyle=orthogonalEdgeStyle;rounded=0;orthogonalLoop=1;jettySize=auto;html=1;exitX=1;exitY=0.5;exitDx=0;exitDy=0;entryX=0;entryY=0.5;entryDx=0;entryDy=0;" edge="1" parent="WIyWlLk6GJQsqaUBKTNV-1" source="gv6H3Rjc2FnPoGJvlaB8-20" target="gv6H3Rjc2FnPoGJvlaB8-2">
          <mxGeometry relative="1" as="geometry" />
        </mxCell>
        <mxCell id="gv6H3Rjc2FnPoGJvlaB8-104" style="edgeStyle=orthogonalEdgeStyle;rounded=0;orthogonalLoop=1;jettySize=auto;html=1;exitX=1;exitY=0.25;exitDx=0;exitDy=0;entryX=0;entryY=0;entryDx=0;entryDy=0;" edge="1" parent="WIyWlLk6GJQsqaUBKTNV-1" source="gv6H3Rjc2FnPoGJvlaB8-51" target="gv6H3Rjc2FnPoGJvlaB8-73">
          <mxGeometry relative="1" as="geometry" />
        </mxCell>
        <mxCell id="gv6H3Rjc2FnPoGJvlaB8-105" value="" style="group;fontSize=14;" vertex="1" connectable="0" parent="WIyWlLk6GJQsqaUBKTNV-1">
          <mxGeometry x="740" y="700" width="420" height="240" as="geometry" />
        </mxCell>
        <mxCell id="gv6H3Rjc2FnPoGJvlaB8-106" value="" style="edgeStyle=orthogonalEdgeStyle;rounded=0;orthogonalLoop=1;jettySize=auto;html=1;fontSize=14;" edge="1" parent="gv6H3Rjc2FnPoGJvlaB8-105" source="gv6H3Rjc2FnPoGJvlaB8-107" target="gv6H3Rjc2FnPoGJvlaB8-109">
          <mxGeometry relative="1" as="geometry" />
        </mxCell>
        <mxCell id="gv6H3Rjc2FnPoGJvlaB8-107" value="&lt;font style=&quot;font-size: 12px;&quot;&gt;Collect Preferences&lt;/font&gt;&lt;div style=&quot;font-size: 12px;&quot;&gt;&lt;font style=&quot;font-size: 12px;&quot;&gt;of All Agents&lt;/font&gt;&lt;/div&gt;" style="shape=parallelogram;perimeter=parallelogramPerimeter;html=1;fixedSize=1;fontSize=12;fillColor=#bac8d3;strokeColor=#23445d;whiteSpace=wrap;" vertex="1" parent="gv6H3Rjc2FnPoGJvlaB8-105">
          <mxGeometry y="11.428571428571429" width="132.6315789473684" height="68.57142857142858" as="geometry" />
        </mxCell>
        <mxCell id="gv6H3Rjc2FnPoGJvlaB8-108" value="" style="edgeStyle=orthogonalEdgeStyle;rounded=0;orthogonalLoop=1;jettySize=auto;html=1;fontSize=14;" edge="1" parent="gv6H3Rjc2FnPoGJvlaB8-105" source="gv6H3Rjc2FnPoGJvlaB8-109" target="gv6H3Rjc2FnPoGJvlaB8-111">
          <mxGeometry relative="1" as="geometry" />
        </mxCell>
        <mxCell id="gv6H3Rjc2FnPoGJvlaB8-109" value="&lt;font style=&quot;font-size: 14px;&quot;&gt;Voting Scheme&lt;/font&gt;" style="rhombus;whiteSpace=wrap;html=1;fontSize=14;fillColor=#fff2cc;strokeColor=#d6b656;" vertex="1" parent="gv6H3Rjc2FnPoGJvlaB8-105">
          <mxGeometry x="158.55" y="5.71" width="80.79" height="80" as="geometry" />
        </mxCell>
        <mxCell id="gv6H3Rjc2FnPoGJvlaB8-110" value="" style="edgeStyle=orthogonalEdgeStyle;rounded=0;orthogonalLoop=1;jettySize=auto;html=1;fontSize=14;" edge="1" parent="gv6H3Rjc2FnPoGJvlaB8-105" source="gv6H3Rjc2FnPoGJvlaB8-111" target="gv6H3Rjc2FnPoGJvlaB8-113">
          <mxGeometry relative="1" as="geometry" />
        </mxCell>
        <mxCell id="gv6H3Rjc2FnPoGJvlaB8-111" value="&lt;font style=&quot;font-size: 14px;&quot;&gt;Final Votes&lt;/font&gt;" style="whiteSpace=wrap;html=1;fontSize=14;fillColor=#f0a30a;strokeColor=#BD7000;fontColor=#000000;" vertex="1" parent="gv6H3Rjc2FnPoGJvlaB8-105">
          <mxGeometry x="132.6315789473684" y="114.28571428571429" width="132.6315789473684" height="34.28571428571429" as="geometry" />
        </mxCell>
        <mxCell id="gv6H3Rjc2FnPoGJvlaB8-112" value="" style="edgeStyle=orthogonalEdgeStyle;rounded=0;orthogonalLoop=1;jettySize=auto;html=1;fontSize=14;" edge="1" parent="gv6H3Rjc2FnPoGJvlaB8-105" source="gv6H3Rjc2FnPoGJvlaB8-113" target="gv6H3Rjc2FnPoGJvlaB8-114">
          <mxGeometry relative="1" as="geometry" />
        </mxCell>
        <mxCell id="gv6H3Rjc2FnPoGJvlaB8-113" value="&lt;font style=&quot;font-size: 14px;&quot;&gt;Calculate Final Results&lt;/font&gt;" style="shape=parallelogram;perimeter=parallelogramPerimeter;whiteSpace=wrap;html=1;fixedSize=1;fontSize=14;fillColor=#bac8d3;strokeColor=#23445d;" vertex="1" parent="gv6H3Rjc2FnPoGJvlaB8-105">
          <mxGeometry x="135.26" y="171.43" width="127.37" height="68.57" as="geometry" />
        </mxCell>
        <mxCell id="gv6H3Rjc2FnPoGJvlaB8-114" value="&lt;font style=&quot;font-size: 14px;&quot;&gt;Final Total Happiness&lt;/font&gt;" style="whiteSpace=wrap;html=1;fontSize=14;fillColor=#fa6800;fontColor=#000000;strokeColor=#C73500;" vertex="1" parent="gv6H3Rjc2FnPoGJvlaB8-105">
          <mxGeometry x="287.37" y="176.43" width="82.63" height="58.57" as="geometry" />
        </mxCell>
        <mxCell id="gv6H3Rjc2FnPoGJvlaB8-115" style="edgeStyle=orthogonalEdgeStyle;rounded=0;orthogonalLoop=1;jettySize=auto;html=1;exitX=1;exitY=0.5;exitDx=0;exitDy=0;entryX=0;entryY=0.5;entryDx=0;entryDy=0;" edge="1" parent="WIyWlLk6GJQsqaUBKTNV-1" source="gv6H3Rjc2FnPoGJvlaB8-65" target="gv6H3Rjc2FnPoGJvlaB8-107">
          <mxGeometry relative="1" as="geometry" />
        </mxCell>
        <mxCell id="gv6H3Rjc2FnPoGJvlaB8-116" value="" style="endArrow=none;dashed=1;html=1;rounded=0;strokeWidth=3;" edge="1" parent="WIyWlLk6GJQsqaUBKTNV-1">
          <mxGeometry width="50" height="50" relative="1" as="geometry">
            <mxPoint x="700" y="970" as="sourcePoint" />
            <mxPoint x="700" y="240" as="targetPoint" />
          </mxGeometry>
        </mxCell>
      </root>
    </mxGraphModel>
  </diagram>
</mxfile>
